<?xml version="1.0"?>
<svg xmlns="http://www.w3.org/2000/svg" height="512px" viewBox="0 0 512 512" width="512px"><g transform="matrix(0.777822 0 0 0.777822 56.8777 56.8777)"><path d="m437.019531 74.980469c-48.351562-48.351563-112.640625-74.980469-181.019531-74.980469s-132.667969 26.628906-181.019531 74.980469c-48.351563 48.351562-74.980469 112.640625-74.980469 181.019531s26.628906 132.667969 74.980469 181.019531c48.351562 48.351563 112.640625 74.980469 181.019531 74.980469s132.667969-26.628906 181.019531-74.980469c48.351563-48.351562 74.980469-112.640625 74.980469-181.019531s-26.628906-132.667969-74.980469-181.019531zm-21.285156 340.753906c-42.664063 42.667969-99.394531 66.167969-159.734375 66.167969s-117.070312-23.5-159.734375-66.167969c-42.667969-42.664063-66.164063-99.394531-66.164063-159.734375s23.496094-117.066406 66.164063-159.734375 99.394531-66.164063 159.734375-66.164063 117.070312 23.496094 159.734375 66.164063c42.667969 42.667969 66.164063 99.394531 66.164063 159.734375s-23.496094 117.070312-66.164063 159.734375zm0 0" data-original="#000000" class="active-path" fill="#000000"/><path d="m256 145.496094c-60.933594 0-110.503906 49.570312-110.503906 110.503906s49.570312 110.503906 110.503906 110.503906 110.503906-49.570312 110.503906-110.503906-49.570312-110.503906-110.503906-110.503906zm0 190.910156c-44.335938 0-80.40625-36.070312-80.40625-80.40625s36.070312-80.402344 80.40625-80.402344 80.40625 36.066406 80.40625 80.402344-36.070312 80.40625-80.40625 80.40625zm0 0" data-original="#000000" class="active-path" fill="#000000"/><path d="m377.277344 150.617188 30.855468-32.359376-21.785156-20.769531-30.847656 32.351563c-29.324219-23.210938-65.5-35.375-103.324219-34.464844-42.90625 1.019531-82.84375 18.6875-112.460937 49.746094-29.617188 31.0625-45.363282 71.796875-44.34375 114.703125 1.023437 42.902343 18.691406 82.84375 49.75 112.457031s70.980468 44.316406 110.84375 44.316406c42.429687 0 84.792968-16.660156 116.316406-49.722656 57.636719-60.445312 58.773438-154.464844 4.996094-216.257812zm-26.78125 195.488281c-49.683594 52.109375-132.492188 54.078125-184.601563 4.394531-25.242187-24.070312-39.597656-56.527344-40.429687-91.394531-.828125-34.867188 11.96875-67.96875 36.035156-93.210938 25.621094-26.871093 60.042969-40.40625 94.527344-40.40625 32.390625 0 64.839844 11.949219 90.078125 36.015625 52.105469 49.679688 54.078125 132.496094 4.390625 184.601563zm0 0" data-original="#000000" class="active-path" fill="#000000"/></g> </svg>
