<svg height="496pt" viewBox="0 0 496 496.008" width="496pt" xmlns="http://www.w3.org/2000/svg"><path d="m319.914062 192c-35.289062 0-64 35.886719-64 80s28.710938 80 64 80c35.285157 0 64-35.886719 64-80s-28.714843-80-64-80zm-48 80c0-34.871094 21.03125-63.273438 47.070313-63.9375-1.144531 4.546875-3.253906 7.777344-5.726563 11.488281-4.167968 6.242188-9.34375 14.007813-9.34375 28.425781 0 14.421876 5.175782 22.191407 9.34375 28.449219 3.71875 5.574219 6.65625 9.980469 6.65625 19.566407 0 9.574218-2.9375 13.984374-6.65625 19.558593-2.9375 4.402344-6.335937 9.609375-8.113281 17.3125-19.253906-8.320312-33.230469-32.449219-33.230469-60.863281zm48.917969 63.9375c1.144531-4.5625 3.257813-7.792969 5.738281-11.503906 4.167969-6.25 9.34375-14.019532 9.34375-28.441406 0-14.425782-5.175781-22.191407-9.34375-28.449219-3.722656-5.574219-6.65625-9.984375-6.65625-19.566407 0-9.570312 2.933594-13.976562 6.65625-19.550781 2.925782-4.394531 6.328126-9.601562 8.101563-17.296875 19.265625 8.328125 33.242187 32.457032 33.242187 60.871094 0 34.871094-21.042968 63.273438-47.082031 63.9375zm0 0"/><path d="m495.914062 56v-16c0-13.230469-10.769531-24-24-24h-112c0-8.824219-7.175781-16-16-16h-48c-8.824218 0-16 7.175781-16 16h-112c-13.234374 0-24 10.769531-24 24v16c0 13.230469 10.765626 24 24 24h1.054688l-25.054688 37.574219v156.074219c-10.96875-11.015626-24.875-17.648438-40-17.648438-35.289062 0-64 35.886719-64 80 0 10.121094 1.550782 19.902344 4.453126 29.183594-6.175782 3.871094-12.039063 8.503906-17.398438 13.871094-30.976562 30.976562-36.007812 76.335937-11.222656 101.121093 10.351562 10.359375 24.414062 15.832031 40.238281 15.832031 2.9375 0 5.9375-.183593 8.984375-.566406 18.71875-2.335937 37.152344-11.753906 51.886719-26.496094 2.328125-2.328124 4.441406-4.839843 6.519531-7.386718 11.578125 20.785156 30.792969 34.441406 52.539062 34.441406 26.183594 0 48.71875-19.785156 58.613282-48h205.386718c30.871094 0 56-25.128906 56-56v-274.425781l-25.058593-37.574219h1.058593c13.230469 0 24-10.769531 24-24zm-24-24c4.414063 0 8 3.59375 8 8v16c0 4.40625-3.585937 8-8 8h-112v-32zm-312 24v-16c0-4.40625 3.582032-8 8-8h112v16h16v-32h48v91.054688l-16-8v-51.054688h-16v51.054688l-16 8v-43.054688h-128c-4.417968 0-8-3.59375-8-8zm-8 280c0 2.039062-.144531 4.03125-.289062 6.023438-9.273438 4.777343-17.425781 12.207031-23.914062 21.511718.074218-1.175781.203124-2.304687.203124-3.542968 0-14.425782-5.175781-22.191407-9.34375-28.449219-3.722656-5.574219-6.65625-9.984375-6.65625-19.566407 0-9.570312 2.933594-13.96875 6.65625-19.542968 2.414063-3.625 5.140626-7.800782 7.03125-13.449219 15.589844 10.582031 26.3125 32.136719 26.3125 57.015625zm-96 0c0-35.289062 21.527344-64 48-64 2.351563 0 4.648438.304688 6.917969.742188-1.183593 4.210937-3.214843 7.28125-5.574219 10.816406-4.167968 6.242187-9.34375 14-9.34375 28.417968 0 14.421876 5.175782 22.191407 9.34375 28.449219 3.269532 4.910157 5.933594 8.925781 6.527344 16.359375-9.726562-4.226562-20.945312-5.722656-32.929687-4.226562-6.765625.847656-13.488281 2.640625-20.015625 5.257812-1.917969-6.96875-2.925782-14.265625-2.925782-21.816406zm-17.632812 54.367188c12.238281-12.238282 27.359375-20.03125 42.558594-21.925782 14.058594-1.777344 26.449218 1.816406 35.136718 10.007813-3.847656 2.183593-7.488281 2.917969-11.679687 3.757812-7.359375 1.472657-16.511719 3.304688-26.710937 13.503907-10.199219 10.191406-12.03125 19.359374-13.503907 26.722656-1.3125 6.566406-2.351562 11.765625-9.128906 18.535156-6.777344 6.765625-11.96875 7.816406-18.542969 9.136719-5.050781 1.007812-10.992187 2.246093-17.511718 6.207031-7.648438-19.34375-.53125-46.03125 19.382812-65.945312zm67.261719 67.265624c-12.238281 12.238282-27.359375 20.03125-42.558594 21.925782-14.046875 1.769531-26.441406-1.816406-35.128906-9.992188 3.839843-2.175781 7.472656-2.933594 11.6875-3.78125 7.363281-1.480468 16.523437-3.304687 26.722656-13.503906 10.199219-10.191406 12.03125-19.359375 13.503906-26.722656 1.3125-6.566406 2.351563-11.765625 9.128907-18.535156 6.765624-6.777344 11.957031-7.808594 18.527343-9.121094 2.03125-.40625 4.214844-.863282 6.503907-1.488282-1.265626 6.273438-2.015626 12.816407-2.015626 19.585938 0 10 1.542969 19.535156 4.230469 28.359375-3.097656 4.746094-6.574219 9.25-10.601562 13.273437zm22.371093-41.632812c0-34.871094 21.039063-63.273438 47.070313-63.9375-1.144531 4.554688-3.253906 7.777344-5.726563 11.496094-4.167968 6.242187-9.34375 14-9.34375 28.417968 0 14.421876 5.175782 22.191407 9.34375 28.449219 3.71875 5.574219 6.65625 9.980469 6.65625 19.566407 0 9.574218-2.9375 13.984374-6.65625 19.558593-2.9375 4.402344-6.335937 9.609375-8.113281 17.3125-19.253906-8.320312-33.230469-32.449219-33.230469-60.863281zm80-69.175781v-159.511719l27.3125-27.3125h169.375l27.3125 27.3125v169.375l-27.3125 27.3125h-170.074218c-5.488282-15.648438-14.878906-28.65625-26.613282-37.175781zm-31.082031 133.113281c1.144531-4.5625 3.257813-7.792969 5.738281-11.503906 4.167969-6.25 9.34375-14.019532 9.34375-28.441406 0-14.425782-5.175781-22.191407-9.34375-28.449219-3.722656-5.574219-6.65625-9.984375-6.65625-19.566407 0-9.570312 2.933594-13.96875 6.65625-19.542968 2.933594-4.394532 6.335938-9.601563 8.109376-17.296875 19.257812 8.320312 33.234374 32.449219 33.234374 60.863281 0 34.871094-21.042968 63.273438-47.082031 63.9375zm303.082031-357.511719v269.574219c0 22.054688-17.945312 40-40 40h-201.289062c.839844-5.167969 1.289062-10.519531 1.289062-16s-.449218-10.832031-1.289062-16h172.601562l36.6875-36.6875v-182.625l-36.6875-36.6875h-182.625l-36.6875 36.6875v157.945312c-5.128906-1.65625-10.464843-2.632812-16-2.632812-2.730468 0-5.394531.289062-8.035156.703125 0-.238281.035156-.464844.035156-.703125 0-14.007812-2.914062-27.175781-8-38.640625v-174.933594l28.277344-42.425781h91.722656v52.945312l40-20 40 20v-52.945312h91.71875zm0 0"/></svg>