<svg height="512pt" viewBox="-56 0 511 512" width="512pt" xmlns="http://www.w3.org/2000/svg"><path d="m376.742188 0h-352.710938c-12.976562 0-23.53125 10.558594-23.53125 23.53125v464.9375c0 12.976562 10.558594 23.53125 23.53125 23.53125h360.726562c4.140626 0 7.5-3.355469 7.5-7.5s-3.359374-7.5-7.5-7.5h-.515624v-50.363281c9.308593-3.136719 16.03125-11.945313 16.03125-22.296875v-400.808594c0-12.972656-10.554688-23.53125-23.53125-23.53125zm8.53125 424.339844c0 4.703125-3.828126 8.53125-8.53125 8.53125h-16.035157c-4.144531 0-7.5 3.359375-7.5 7.5s3.355469 7.5 7.5 7.5h8.535157v17.0625h-329.179688c-4.140625 0-7.5 3.359375-7.5 7.5 0 4.144531 3.359375 7.5 7.5 7.5h329.179688v17.066406h-345.210938c-4.703125 0-8.53125-3.828125-8.53125-8.53125v-32.066406c0-4.703125 3.828125-8.53125 8.53125-8.53125h304.613281c4.140625 0 7.5-3.355469 7.5-7.5 0-4.140625-3.359375-7.5-7.5-7.5h-281.082031v-377.273438c0-4.140625-3.355469-7.5-7.5-7.5-4.140625 0-7.5 3.359375-7.5 7.5v377.273438h-8.53125c-3.007812 0-5.882812.574218-8.53125 1.609375v-410.949219c0-4.703125 3.828125-8.53125 8.53125-8.53125h8.53125v8.53125c0 4.144531 3.359375 7.5 7.5 7.5 4.144531 0 7.5-3.355469 7.5-7.5v-8.53125h329.179688c4.703124 0 8.53125 3.828125 8.53125 8.53125zm0 0"/><path d="m280.546875 160.324219c-1.632813 0-3.269531.097656-4.957031.304687-9.445313-24.09375-32.863282-40.386718-59.171875-40.386718-26.304688 0-49.722657 16.292968-59.167969 40.386718-1.6875-.207031-3.328125-.304687-4.960938-.304687-26.234374 0-47.578124 21.34375-47.578124 47.578125 0 23.6875 17.394531 43.382812 40.078124 46.992187v33.171875c0 12.972656 10.558594 23.53125 23.53125 23.53125h96.195313c12.976563 0 23.53125-10.558594 23.53125-23.53125v-33.171875c22.6875-3.609375 40.082031-23.304687 40.082031-46.992187 0-26.234375-21.34375-47.578125-47.582031-47.578125zm-16.03125 136.273437h-96.191406c-4.707031 0-8.535157-3.828125-8.535157-8.53125v-8.535156h32.558594c.007813 0 .015625.003906.023438.003906.007812 0 .015625-.003906.023437-.003906h48.050781c.007813 0 .015626.003906.023438.003906s.015625-.003906.023438-.003906h32.558593v8.535156c-.003906 4.703125-3.832031 8.53125-8.535156 8.53125zm16.03125-56.113281c-4.140625 0-7.5 3.359375-7.5 7.5v16.546875h-22.175781l12.742187-38.222656c1.3125-3.929688-.8125-8.179688-4.742187-9.488282-3.929688-1.308593-8.175782.8125-9.488282 4.742188l-14.320312 42.96875h-11.144531v-48.613281c0-4.140625-3.359375-7.5-7.5-7.5s-7.5 3.359375-7.5 7.5v48.613281h-11.140625l-14.324219-42.96875c-1.308594-3.929688-5.558594-6.054688-9.484375-4.742188-3.933594 1.308594-6.054688 5.558594-4.746094 9.488282l12.742188 38.222656h-22.175782v-16.546875c0-4.140625-3.355468-7.5-7.5-7.5-17.964843 0-32.578124-14.617187-32.578124-32.582031s14.613281-32.582032 32.578124-32.582032c2.449219 0 5.03125.375 8.132813 1.175782 3.984375 1.027344 8.046875-1.339844 9.117187-5.308594 5.707032-21.164062 24.984376-35.945312 46.878907-35.945312 21.898437 0 41.175781 14.78125 46.882812 35.945312 1.066407 3.96875 5.136719 6.335938 9.117188 5.308594 3.097656-.800782 5.679687-1.175782 8.128906-1.175782 17.964844 0 32.582031 14.617188 32.582031 32.582032s-14.617187 32.582031-32.582031 32.582031zm0 0"/><path d="m280.546875 336.675781h-128.257813c-4.140624 0-7.5 3.359375-7.5 7.5 0 4.144531 3.359376 7.5 7.5 7.5h128.257813c4.144531 0 7.5-3.355469 7.5-7.5 0-4.140625-3.355469-7.5-7.5-7.5zm0 0"/><path d="m256.5 376.757812h-80.160156c-4.144532 0-7.5 3.359376-7.5 7.5 0 4.140626 3.355468 7.5 7.5 7.5h80.160156c4.140625 0 7.5-3.359374 7.5-7.5 0-4.140624-3.359375-7.5-7.5-7.5zm0 0"/><path d="m152.257812 95.160156h128.320313c12.960937 0 23.5-10.542968 23.5-23.5625 0-12.957031-10.539063-23.5-23.5-23.5h-128.320313c-12.957031 0-23.5 10.542969-23.5 23.5625 0 12.957032 10.542969 23.5 23.5 23.5zm0-32.0625h128.320313c4.6875 0 8.5 3.8125 8.5 8.5625 0 4.6875-3.8125 8.5-8.5 8.5h-128.320313c-4.6875 0-8.5-3.8125-8.5-8.5625 0-4.6875 3.8125-8.5 8.5-8.5zm0 0"/><path d="m111.695312 71.628906c0-4.140625-3.359374-7.5-7.5-7.5h-8.015624c-4.144532 0-7.5 3.359375-7.5 7.5s3.355468 7.5 7.5 7.5h8.015624c4.140626 0 7.5-3.359375 7.5-7.5zm0 0"/><path d="m336.660156 64.128906h-8.015625c-4.140625 0-7.5 3.359375-7.5 7.5s3.359375 7.5 7.5 7.5h8.015625c4.144532 0 7.5-3.359375 7.5-7.5s-3.355468-7.5-7.5-7.5zm0 0"/></svg>