<svg id="Capa_1" enable-background="new 0 0 511.929 511.929" height="512" viewBox="0 0 511.929 511.929" width="512" xmlns="http://www.w3.org/2000/svg"><g><g><path d="m511.058 304.945c2.943-6.493-1.948-14.122-9.097-14.122h-130.14c6.805-15.51 10.592-32.634 10.592-50.628 0-14.551-3.812-28.923-11.023-41.563l-25.465-44.624c-2.738-4.797-8.846-6.467-13.642-3.729-4.797 2.737-6.467 8.845-3.729 13.642l25.465 44.623c5.492 9.625 8.395 20.57 8.395 31.651 0 57.937-48.542 106.436-106.436 106.436-57.915 0-106.437-48.504-106.437-106.436 0-11.081 2.902-22.025 8.395-31.65l98.042-171.804 28.7 50.293c2.738 4.797 8.847 6.465 13.642 3.729 4.797-2.738 6.467-8.845 3.729-13.642l-37.386-65.513c-1.78-3.119-5.095-5.043-8.686-5.043s-6.905 1.925-8.686 5.043l-106.727 187.025c-7.212 12.639-11.023 27.011-11.023 41.562 0 17.994 3.787 35.117 10.592 50.628h-130.171c-7.594 0-12.472 8.558-8.605 15.094l86.797 146.61c14.983 25.766 46.73 38.111 75.472 38.111 32.205 0 63.249-15.55 82.337-41.497v46.223c0 5.523 4.478 10 10 10s10-4.477 10-10v-46.222c13.553 18.423 32.766 31.674 55.16 37.814 8.981 2.463 18.106 3.681 27.175 3.681 28.887 0 60.213-12.384 75.436-38.048-.001 0 87.16-147.32 87.324-147.644zm-100.671 130.927-81.094-25.155 144.849-82.535zm-138.034-15.729c-4.188-10-6.383-20.749-6.391-31.574v-.116c.005-7.637 1.061-15.179 3.146-22.5 36.947-3.823 70.993-24.336 91.743-55.13h27.135l-12.889 50.777zm-136.825-59.284-12.702-50.037h28.275c20.745 30.789 54.778 51.284 91.713 55.127 2.091 7.339 3.147 14.902 3.147 22.56 0 10.846-2.196 21.615-6.391 31.633zm-34.151 74.745-63.598-107.423 144.466 82.317zm.815-124.781 9.213 36.291-63.691-36.291zm362.018 0-64.99 37.031 9.4-37.031zm-278.698 156.845c-23.62 6.476-53.593 2.544-71.876-14.929l92.4-28.686 23.623 13.46c-10.888 14.676-26.247 25.248-44.147 30.155zm140.899 0c-17.9-4.908-33.258-15.479-44.146-30.154l23.232-13.238 92.529 28.702c-18.327 17.261-48.078 21.146-71.615 14.69z"/><path d="m251.053 323.224c4.419 1.079 9.154-1.076 11.247-5.112l58.981-113.752c3.393-6.543-1.523-14.603-8.878-14.603h-48.981v-63.247c0-10.225-14.243-13.682-18.907-4.546l-59.594 116.763c-3.338 6.541 1.579 14.546 8.907 14.546h49.594v60.235c0 4.611 3.153 8.623 7.631 9.716zm-40.893-89.951 33.263-65.172v31.655c0 5.523 4.478 10 10 10h42.532l-32.532 62.742v-29.225c0-5.523-4.478-10-10-10z"/><path d="m306.002 124.234c2.095 5.024 8.018 7.502 13.06 5.41 5.028-2.087 7.5-8.025 5.41-13.06-2.088-5.029-8.023-7.5-13.06-5.41-5.027 2.086-7.508 8.026-5.41 13.06z"/></g></g></svg>