<svg id="Capa_1" enable-background="new 0 0 512 512" height="512" viewBox="0 0 512 512" width="512" xmlns="http://www.w3.org/2000/svg"><g><path d="m507.808 209.623-2.251-12.299h-264.557v120h136.452c-22.819 45.393-69.334 74.676-121.452 74.676-74.991 0-136-61.009-136-136s61.009-136 136-136c36.326 0 70.479 14.146 96.167 39.833l10.606 10.606 84.853-84.852-10.606-10.606c-48.352-48.352-112.639-74.981-181.02-74.981-68.38 0-132.667 26.629-181.02 74.98-48.351 48.353-74.98 112.64-74.98 181.02s26.629 132.667 74.98 181.02c48.353 48.351 112.64 74.98 181.02 74.98s132.667-26.629 181.02-74.98c48.351-48.353 74.98-112.64 74.98-181.02 0-15.575-1.41-31.179-4.192-46.377zm-251.808-179.623c55.342 0 107.644 19.754 148.855 55.931l-42.552 42.552c-29.783-24.916-67.002-38.483-106.303-38.483-52.421 0-99.237 24.432-129.681 62.499l-42.597-42.597c41.488-48.847 103.32-79.902 172.278-79.902zm-190.339 104.266 43.806 43.806c-12.416 23.251-19.467 49.78-19.467 77.928s7.051 54.677 19.466 77.928l-43.806 43.806c-22.564-35.158-35.66-76.945-35.66-121.734s13.096-86.576 35.661-121.734zm18.061 267.832 42.597-42.597c30.444 38.067 77.26 62.499 129.681 62.499 27.568 0 54.12-6.66 77.982-19.413l43.753 43.752c-35.159 22.565-76.946 35.661-121.735 35.661-68.958 0-130.79-31.055-172.278-79.902zm318.376 26.18-42.541-42.54c25.638-20.457 44.414-47.586 54.471-78.816l6.311-19.598h-149.339v-60h209.197c1.199 9.481 1.803 19.082 1.803 28.676 0 68.958-31.055 130.79-79.902 172.278z"/></g></svg>