<?xml version="1.0"?>
<svg xmlns="http://www.w3.org/2000/svg" height="512px" viewBox="0 0 464 464" width="512px" class=""><g><path d="m464 232c0 128.128906-103.871094 232-232 232s-232-103.871094-232-232 103.871094-232 232-232 232 103.871094 232 232zm0 0" fill="#e8e8e8" data-original="#E8E8E8" class="" style="fill:#FCEEDD" data-old_color="#e8e8e8"/><path d="m64 408c-4.480469-4.113281-7.03125-9.917969-7.03125-16s2.550781-11.886719 7.03125-16l80-80 32 32-80 80c-4.113281 4.480469-9.917969 7.03125-16 7.03125s-11.886719-2.550781-16-7.03125zm0 0" fill="#d9833b" data-original="#D9833B" class="active-path" style="fill:#7B3638" data-old_color="#d9833b"/><path d="m392 232c0 88.367188-71.632812 160-160 160s-160-71.632812-160-160 71.632812-160 160-160 160 71.632812 160 160zm0 0" fill="#b5554e" data-original="#B5554E" class="" style="fill:#7B3638" data-old_color="#b5554e"/><path d="m360 232c0 70.691406-57.308594 128-128 128s-128-57.308594-128-128 57.308594-128 128-128 128 57.308594 128 128zm0 0" fill="#d3843d" data-original="#D3843D" class="" style="fill:#E3E8CD" data-old_color="#d3843d"/><path d="m232 440v-16c105.988281-.125 191.875-86.011719 192-192h16c-.128906 114.820312-93.179688 207.871094-208 208zm0 0" fill="#fff" data-original="#FFF" class=""/><path d="m40 232h-16c.128906-114.820312 93.179688-207.871094 208-208v16c-105.988281.125-191.875 86.011719-192 192zm0 0" fill="#fff" data-original="#FFF" class=""/><path d="m24 248h16v16h-16zm0 0" fill="#fff" data-original="#FFF" class=""/><path d="m424 200h16v16h-16zm0 0" fill="#fff" data-original="#FFF" class=""/><g fill="#f9bb4b"><path d="m232 150c-9.148438-8-22.804688-8-31.953125 0-8.765625 8.84375-8.765625 23.101562 0 31.945312l31.953125 25.558594 31.953125-25.558594c8.765625-8.84375 8.765625-23.101562 0-31.945312-9.148437-8-22.804687-8-31.953125 0zm0 0" data-original="#F9BB4B" class="" style="fill:#A1DD70" data-old_color="#F9BB4B"/><path d="m248 272h-16c0-26.507812 21.492188-48 48-48h16c0 26.507812-21.492188 48-48 48zm0 0" data-original="#F9BB4B" class="" style="fill:#A1DD70" data-old_color="#F9BB4B"/><path d="m168 224h16c26.507812 0 48 21.492188 48 48h-16c-26.507812 0-48-21.492188-48-48zm0 0" data-original="#F9BB4B" class="" style="fill:#A1DD70" data-old_color="#F9BB4B"/><path d="m248 320h-16c0-26.507812 21.492188-48 48-48h16c0 26.507812-21.492188 48-48 48zm0 0" data-original="#F9BB4B" class="" style="fill:#A1DD70" data-old_color="#F9BB4B"/><path d="m168 272h16c26.507812 0 48 21.492188 48 48h-16c-26.507812 0-48-21.492188-48-48zm0 0" data-original="#F9BB4B" class="" style="fill:#A1DD70" data-old_color="#F9BB4B"/></g><path d="m320 208h16v16h-16zm0 0" fill="#b5554e" data-original="#B5554E" class="" style="fill:#7B3638" data-old_color="#b5554e"/><path d="m304 176h16v16h-16zm0 0" fill="#b5554e" data-original="#B5554E" class="" style="fill:#7B3638" data-old_color="#b5554e"/><path d="m128 224h16v16h-16zm0 0" fill="#b5554e" data-original="#B5554E" class="" style="fill:#7B3638" data-old_color="#b5554e"/></g> </svg>
