<?xml version="1.0"?>
<svg xmlns="http://www.w3.org/2000/svg" id="outline" viewBox="0 0 64 64" width="512" height="512"><path d="M13,37.082,11,36.917c-.023.263-.5,6.472,3,10.267A9.083,9.083,0,0,0,21,50V48a7.168,7.168,0,0,1-5.522-2.164C12.579,42.694,12.992,37.138,13,37.082Z"/><rect x="40" y="33" width="13" height="2"/><rect x="36" y="33" width="2" height="2"/><path d="M9.548,29H7V42A12.009,12.009,0,0,0,18,53.949V60H46V53.949A12.009,12.009,0,0,0,57,42V29H47.414l6.256-6.255c.666-.537,5.174-4.174,6.037-5.038a6.439,6.439,0,0,0,0-9.414,6.429,6.429,0,0,0-9.414,0c-.865.865-4.517,5.391-5.042,6.042L30.586,29H26.452A15,15,0,0,0,34,16V5a1,1,0,0,0-1-1H31A15.013,15.013,0,0,0,16.453,15.407,15,15,0,0,0,3,7,1,1,0,0,0,2,8v8A15,15,0,0,0,9.548,29ZM44,58H28V56H26v2H24V56H22v2H20V54H44ZM51.707,9.707a4.492,4.492,0,0,1,6.586,0,4.457,4.457,0,0,1,0,6.586c-.587.587-3.521,2.986-5.222,4.364l-5.728-5.728C48.721,13.228,51.12,10.294,51.707,9.707ZM46,16.414,51.586,22,50,23.586,44.414,18Zm-3,3L48.586,25,45,28.586,39.414,23Zm-5,5L42.586,29H33.414ZM55,31V42A10.011,10.011,0,0,1,45,52H19A10.011,10.011,0,0,1,9,42V31ZM18,19A13.015,13.015,0,0,1,31,6h1V16A13.015,13.015,0,0,1,19,29H18v-.482c1.875-1.365,9.071-7.1,9.994-15.408l-1.988-.22C25.318,19.079,20.527,23.846,18,25.963V19ZM4,9.038A13.017,13.017,0,0,1,16,22v4.172a20.829,20.829,0,0,1-7.063-9.523l-1.874.7A22.192,22.192,0,0,0,16,28.582v.38A13.017,13.017,0,0,1,4,16Z"/><rect x="54.586" y="11" width="2.828" height="2" transform="translate(7.917 43.113) rotate(-45)"/><rect x="51.586" y="14" width="2.828" height="2" transform="translate(4.917 41.87) rotate(-45)"/></svg>
